HIERARCHY
ROOT Hips
{
 OFFSET 0.000000 0.000000 0.000000
 CHANNELS 6 Xposition Yposition Zposition Yrotation Xrotation Zrotation
 JOINT Chest
 {
  OFFSET 0.000000 9.588913 -0.003946
  CHANNELS 3 Yrotation Xrotation Zrotation
  JOINT Chest2
  {
   OFFSET 0.000000 9.541882 0.008053
   CHANNELS 3 Yrotation Xrotation Zrotation
   JOINT Chest3
   {
    OFFSET 0.000000 9.501360 0.000000
    CHANNELS 3 Yrotation Xrotation Zrotation
    JOINT Chest4
    {
     OFFSET 0.000000 9.491660 0.000000
     CHANNELS 3 Yrotation Xrotation Zrotation
     JOINT Neck
     {
      OFFSET 0.000000 14.331917 0.000000
      CHANNELS 3 Yrotation Xrotation Zrotation
      JOINT Head
      {
       OFFSET 0.000000 8.884799 0.017034
       CHANNELS 3 Yrotation Xrotation Zrotation
       End Site
       {
        OFFSET 0.000000 16.896195 0.008993
       }
      }
     }
     JOINT RightCollar
     {
      OFFSET -2.923010 9.499495 0.000000
      CHANNELS 3 Yrotation Xrotation Zrotation
      JOINT RightShoulder
      {
       OFFSET -13.795216 0.000000 0.000000
       CHANNELS 3 Yrotation Xrotation Zrotation
       JOINT RightElbow
       {
        OFFSET -30.272209 0.000000 0.000000
        CHANNELS 3 Yrotation Xrotation Zrotation
        JOINT RightWrist
        {
         OFFSET -24.478199 0.000000 0.000000
         CHANNELS 3 Yrotation Xrotation Zrotation
         End Site
         {
          OFFSET -18.090752 0.000000 0.000000
         }
        }
       }
      }
     }
     JOINT LeftCollar
     {
      OFFSET 2.923010 9.499495 0.000000
      CHANNELS 3 Yrotation Xrotation Zrotation
      JOINT LeftShoulder
      {
       OFFSET 13.795216 0.000000 0.000000
       CHANNELS 3 Yrotation Xrotation Zrotation
       JOINT LeftElbow
       {
        OFFSET 30.272209 0.000000 0.000000
        CHANNELS 3 Yrotation Xrotation Zrotation
        JOINT LeftWrist
        {
         OFFSET 24.478199 0.000000 0.000000
         CHANNELS 3 Yrotation Xrotation Zrotation
         End Site
         {
          OFFSET 18.090752 0.000000 0.000000
         }
        }
       }
      }
     }
    }
   }
  }
 }
 JOINT RightHip
 {
  OFFSET -7.826875 0.019532 0.001973
  CHANNELS 3 Yrotation Xrotation Zrotation
  JOINT RightKnee
  {
   OFFSET 0.000000 -40.546152 -0.001885
   CHANNELS 3 Yrotation Xrotation Zrotation
   JOINT RightAnkle
   {
    OFFSET 0.000000 -39.417092 -0.003189
    CHANNELS 3 Yrotation Xrotation Zrotation
    JOINT RightToe
    {
     OFFSET 0.000000 -7.579396 17.243563
     CHANNELS 3 Yrotation Xrotation Zrotation
     End Site
     {
      OFFSET 0.000000 -1.500329 6.694466
     }
    }
   }
  }
 }
 JOINT LeftHip
 {
  OFFSET 7.826875 0.019532 0.001973
  CHANNELS 3 Yrotation Xrotation Zrotation
  JOINT LeftKnee
  {
   OFFSET 0.000000 -40.546152 -0.001885
   CHANNELS 3 Yrotation Xrotation Zrotation
   JOINT LeftAnkle
   {
    OFFSET 0.000000 -39.417092 -0.003189
    CHANNELS 3 Yrotation Xrotation Zrotation
    JOINT LeftToe
    {
     OFFSET 0.000000 -7.579396 17.243563
     CHANNELS 3 Yrotation Xrotation Zrotation
     End Site
     {
      OFFSET 0.000000 -1.500329 6.694466
     }
    }
   }
  }
 }
}
MOTION
Frames: 15
Frame Time: 0.008333
-7.672874 47.194000 -25.565693 4.982489 -16.838338 2.692644 7.077497 11.708259 -2.969895 4.413186 6.647854 -1.498963 5.498331 8.326172 -1.795735 4.413186 6.647854 -1.498965 -6.830287 7.667340 0.099326 -7.710995 -17.652539 1.805234 20.115884 -8.111411 -11.707156 16.718177 -53.214978 50.974418 36.004050 -17.450627 -0.034682 10.791091 -7.546060 -16.051055 0.809842 -9.181696 -1.505992 -24.392056 -33.809788 -79.853073 -73.418723 1.012094 -51.781434 4.564384 7.887763 16.411128 66.510682 -67.638449 -51.569757 125.113787 74.064398 146.253479 5.208305 -10.482910 -0.963138 0.694390 -0.582047 0.278928 48.373094 -67.533224 -28.611074 106.397765 61.729205 129.873492 7.145984 -13.686082 -15.563000 -0.405174 0.800059 -0.202770
-7.680080 47.188027 -25.560633 4.965579 -16.790485 2.711778 7.111476 11.746768 -2.952891 4.424368 6.667814 -1.495108 5.512377 8.351109 -1.790473 4.424369 6.667814 -1.495110 -6.879719 7.640949 0.145657 -7.783312 -17.681504 1.871178 20.141643 -8.059863 -11.728201 16.861843 -53.279163 50.976197 35.610781 -17.375037 -0.094118 10.801287 -7.565586 -16.030547 0.796625 -9.177533 -1.538623 -24.421586 -33.825617 -79.788865 -73.487899 0.900021 -51.868226 4.413295 7.881294 16.479227 66.639398 -67.656006 -51.685155 125.153962 74.059670 146.290727 5.228262 -10.497794 -0.963016 0.674351 -0.571572 0.272279 48.453223 -67.561519 -28.691660 106.448890 61.746239 129.916634 7.151116 -13.693895 -15.575199 -0.382980 0.797634 -0.194886
-7.686771 47.182973 -25.555787 4.945445 -16.744954 2.734011 7.144647 11.785472 -2.938094 4.434621 6.687660 -1.491210 5.525261 8.375900 -1.785176 4.434622 6.687660 -1.491212 -6.928758 7.614337 0.192096 -7.855323 -17.710716 1.937246 20.168779 -8.013184 -11.747474 16.994422 -53.333560 50.968541 35.240465 -17.317687 -0.149258 10.803797 -7.586062 -15.999611 0.783879 -9.169674 -1.571409 -24.439972 -33.850426 -79.728866 -73.561036 0.788174 -51.957656 4.277046 7.875223 16.550737 66.763818 -67.672935 -51.795360 125.189322 74.053770 146.319224 5.251214 -10.508677 -0.961549 0.653124 -0.564431 0.264444 48.533955 -67.585922 -28.770466 106.495378 61.760545 129.955798 7.153979 -13.699349 -15.587147 -0.360600 0.793877 -0.187499
-7.693210 47.178719 -25.551129 4.923759 -16.701403 2.756952 7.175964 11.822927 -2.924278 4.444499 6.707388 -1.486770 5.537685 8.400535 -1.779206 4.444499 6.707388 -1.486772 -6.978802 7.588532 0.237317 -7.928258 -17.739052 2.002275 20.199420 -7.970862 -11.765472 17.118754 -53.385776 50.951361 34.889278 -17.263509 -0.193969 10.800228 -7.596049 -15.969075 0.769635 -9.159562 -1.604399 -24.446613 -33.878253 -79.675169 -73.641533 0.678293 -52.045869 4.163521 7.869808 16.615743 66.883555 -67.690291 -51.900832 125.222124 74.047580 146.344424 5.275114 -10.514362 -0.960918 0.634253 -0.561340 0.256420 48.610098 -67.609033 -28.845650 106.535504 61.770137 129.988590 7.157276 -13.700691 -15.599757 -0.343289 0.788613 -0.180720
-7.699473 47.175082 -25.546917 4.902931 -16.657896 2.779365 7.203354 11.857254 -2.910282 4.453208 6.726373 -1.481821 5.548659 8.424231 -1.772628 4.453208 6.726373 -1.481823 -7.029262 7.564788 0.279172 -8.000762 -17.765137 2.063640 20.234029 -7.929919 -11.783970 17.246895 -53.440117 50.918610 34.548018 -17.203292 -0.230275 10.795072 -7.597351 -15.944185 0.757603 -9.149127 -1.637827 -24.444012 -33.904488 -79.629101 -73.726231 0.567919 -52.128495 4.077073 7.863562 16.665794 67.003046 -67.708099 -52.006909 125.253324 74.041813 146.369383 5.296940 -10.515861 -0.961137 0.619889 -0.561484 0.248739 48.673064 -67.633558 -28.912915 106.575509 61.778638 130.018077 7.165385 -13.698924 -15.613936 -0.331648 0.783288 -0.174943
-7.705322 47.171984 -25.543129 4.886374 -16.614556 2.801632 7.224289 11.887820 -2.896063 4.460202 6.744237 -1.476597 5.557492 8.446517 -1.765749 4.460203 6.744237 -1.476598 -7.079360 7.543954 0.316848 -8.071626 -17.788035 2.120176 20.268697 -7.887601 -11.802283 17.383457 -53.496763 50.870743 34.210001 -17.132655 -0.267807 10.798821 -7.595733 -15.924166 0.749140 -9.136876 -1.671955 -24.435256 -33.927749 -79.589489 -73.813131 0.454622 -52.203430 4.021224 7.854578 16.698833 67.123881 -67.723145 -52.116450 125.284999 74.036209 146.395842 5.318357 -10.516594 -0.960964 0.608153 -0.563197 0.242292 48.711795 -67.659507 -28.964484 106.618373 61.789405 130.045120 7.175346 -13.694626 -15.633271 -0.321319 0.778162 -0.167666
-7.710526 47.169483 -25.539265 4.873884 -16.574441 2.824985 7.237777 11.916004 -2.883233 4.466124 6.760837 -1.471205 5.564989 8.467218 -1.758696 4.466125 6.760837 -1.471207 -7.129094 7.527201 0.352076 -8.141199 -17.806440 2.173793 20.303395 -7.841443 -11.819440 17.520078 -53.553242 50.818996 33.882860 -17.051314 -0.312516 10.812809 -7.587369 -15.908378 0.743830 -9.120848 -1.707870 -24.426623 -33.946338 -79.550354 -73.902533 0.336890 -52.269384 4.000042 7.848699 16.717546 67.244307 -67.730995 -52.226393 125.311630 74.028747 146.419664 5.339033 -10.518589 -0.959604 0.596745 -0.565657 0.236957 48.717368 -67.684940 -28.989697 106.666229 61.803021 130.069849 7.183965 -13.688313 -15.659276 -0.309763 0.772553 -0.157517
-7.715388 47.167552 -25.534946 4.864869 -16.539703 2.847691 7.245650 11.942670 -2.871085 4.471431 6.776292 -1.465365 5.571725 8.486481 -1.751105 4.471432 6.776292 -1.465366 -7.181082 7.514620 0.387006 -8.213143 -17.820240 2.227612 20.334730 -7.790171 -11.834157 17.656735 -53.606745 50.765727 33.579185 -16.965935 -0.360616 10.830655 -7.572126 -15.900279 0.743212 -9.101175 -1.744430 -24.424242 -33.959170 -79.508620 -73.996663 0.216951 -52.322174 4.013796 7.848213 16.720005 67.360332 -67.731735 -52.332467 125.330533 74.019146 146.438526 5.362677 -10.519476 -0.954774 0.584420 -0.570114 0.230755 48.681455 -67.711009 -28.977234 106.725274 61.820736 130.097425 7.188495 -13.682043 -15.691469 -0.294829 0.766077 -0.144738
-7.719686 47.166163 -25.529940 4.857646 -16.512027 2.871509 7.251645 11.970318 -2.860775 4.475988 6.791207 -1.459226 5.577529 8.505062 -1.743159 4.475988 6.791207 -1.459227 -7.237739 7.503688 0.423306 -8.290966 -17.832209 2.284244 20.360656 -7.737647 -11.847014 17.792401 -53.653512 50.709379 33.305276 -16.883344 -0.408358 10.848297 -7.557200 -15.896462 0.747719 -9.077987 -1.779584 -24.426513 -33.970721 -79.464949 -74.098252 0.098757 -52.364344 4.055957 7.848262 16.707829 67.470831 -67.724368 -52.432506 125.353900 74.009084 146.464520 5.390897 -10.517520 -0.945631 0.570156 -0.577645 0.222633 48.608684 -67.735642 -28.929796 106.801125 61.841119 130.133357 7.189313 -13.677844 -15.726327 -0.278066 0.757677 -0.131847
-7.722956 47.165110 -25.524748 4.847976 -16.488737 2.900655 7.257076 11.998874 -2.854925 4.480256 6.805946 -1.454129 5.582953 8.523435 -1.736526 4.480257 6.805946 -1.454130 -7.298570 7.491322 0.461950 -8.374599 -17.845740 2.344771 20.387859 -7.688914 -11.860640 17.912024 -53.690693 50.657124 33.064298 -16.805384 -0.455824 10.860595 -7.545366 -15.885676 0.755975 -9.051020 -1.812182 -24.426953 -33.986920 -79.417772 -74.205132 -0.016221 -52.406480 4.113402 7.848828 16.691579 67.585725 -67.709495 -52.534094 125.385246 73.998713 146.501572 5.417451 -10.511891 -0.934424 0.555444 -0.588188 0.213522 48.520798 -67.757212 -28.866682 106.889639 61.861942 130.173636 7.191274 -13.673223 -15.758563 -0.262565 0.746436 -0.121752
-7.725700 47.163946 -25.520570 4.834982 -16.462407 2.932927 7.262412 12.022707 -2.850721 4.484415 6.819999 -1.450659 5.588211 8.540970 -1.731938 4.484416 6.819999 -1.450660 -7.362881 7.476684 0.501778 -8.462996 -17.861764 2.407735 20.415038 -7.642391 -11.875820 18.015280 -53.721650 50.610617 32.855332 -16.737264 -0.500089 10.864545 -7.538930 -15.866759 0.766796 -9.021238 -1.842434 -24.422206 -34.009273 -79.365402 -74.310767 -0.129508 -52.454774 4.177486 7.853256 16.676865 67.716295 -67.693361 -52.649139 125.407258 73.988269 146.531894 5.437946 -10.501103 -0.922394 0.542198 -0.600329 0.204375 48.437386 -67.780364 -28.805912 106.977622 61.882853 130.207858 7.193888 -13.667740 -15.786289 -0.248401 0.735495 -0.114127
-7.728185 47.162548 -25.517692 4.820035 -16.431482 2.966464 7.267482 12.039630 -2.846809 4.487744 6.832617 -1.447803 5.592419 8.556715 -1.728152 4.487744 6.832617 -1.447804 -7.429361 7.461050 0.540076 -8.553787 -17.878884 2.469664 20.436366 -7.593749 -11.894167 18.110707 -53.751789 50.568203 32.674679 -16.692815 -0.536319 10.863055 -7.543297 -15.840708 0.781545 -8.990282 -1.874239 -24.413710 -34.034182 -79.307995 -74.411865 -0.241861 -52.507120 4.247042 7.859468 16.661828 67.860736 -67.677275 -52.776473 125.411156 73.978501 146.544903 5.453096 -10.486996 -0.906670 0.528206 -0.611427 0.193953 48.368749 -67.804833 -28.758589 107.055020 61.900599 130.230650 7.194857 -13.663334 -15.809027 -0.238874 0.727012 -0.109073
-7.730318 47.161203 -25.515173 4.802176 -16.401927 3.001752 7.272614 12.053745 -2.844329 4.490244 6.843536 -1.444514 5.595600 8.570330 -1.723859 4.490244 6.843537 -1.444515 -7.496584 7.445918 0.574649 -8.644572 -17.895458 2.527628 20.451074 -7.544189 -11.916104 18.194835 -53.780981 50.534998 32.520145 -16.678992 -0.560709 10.860332 -7.561215 -15.804629 0.799951 -8.959229 -1.910166 -24.400648 -34.057198 -79.249110 -74.506540 -0.350266 -52.561410 4.315827 7.862001 16.647588 68.006094 -67.657739 -52.901853 125.405592 73.969809 146.547913 5.470796 -10.471628 -0.884647 0.511267 -0.620614 0.180546 48.309940 -67.824871 -28.719050 107.121300 61.912775 130.244707 7.195902 -13.661306 -15.828574 -0.234053 0.720520 -0.106684
-7.732270 47.160159 -25.512136 4.783313 -16.379034 3.037168 7.278135 12.069211 -2.841912 4.492486 6.853134 -1.440772 5.598468 8.582287 -1.719019 4.492486 6.853135 -1.440773 -7.564345 7.432567 0.605023 -8.734874 -17.910072 2.580977 20.457060 -7.500426 -11.937176 18.271221 -53.806864 50.508989 32.385956 -16.691112 -0.575718 10.857149 -7.588704 -15.756391 0.814777 -8.928622 -1.946862 -24.374844 -34.077596 -79.193780 -74.592088 -0.453620 -52.620910 4.373100 7.860905 16.637327 68.137532 -67.634703 -53.012144 125.402698 73.961554 146.553183 5.496396 -10.454198 -0.860931 0.496828 -0.629964 0.167188 48.244292 -67.836980 -28.670909 107.178723 61.922801 130.251736 7.200845 -13.662936 -15.848259 -0.227635 0.717675 -0.104500
-7.733780 47.159445 -25.508539 4.769283 -16.363141 3.073259 7.279382 12.086336 -2.841418 4.494694 6.861735 -1.437117 5.601294 8.592999 -1.714301 4.494694 6.861735 -1.437118 -7.632590 7.422735 0.632220 -8.824744 -17.920792 2.630785 20.454632 -7.465817 -11.953851 18.347941 -53.831138 50.480914 32.268296 -16.719150 -0.585814 10.846013 -7.619017 -15.691683 0.821062 -8.897961 -1.980345 -24.329301 -34.096261 -79.145029 -74.667655 -0.553109 -52.687944 4.416035 7.856909 16.630061 68.250553 -67.608062 -53.107386 125.408502 73.950942 146.566340 5.524534 -10.437229 -0.840228 0.487866 -0.639816 0.157568 48.169324 -67.840979 -28.616884 107.227128 61.933213 130.249801 7.210271 -13.663116 -15.867616 -0.218820 0.716502 -0.101072
